# xmcd
#
# Track frame offsets: 
#        150
#        21538
#        41475
#        62130
#        83183
#        106092
#        129329
#        148212
#        171952
#        190855
#        211849
#        230218
#
# Disc length: 3353 seconds
#
# Revision: 0
# Processed by: cddbd v1.5.2PL0 Copyright (c) Steve Scherf et al.
# Submitted via: ExactAudioCopy v0.95a5
#
DISCID=ac0d170c
DTITLE=Lucius and Lamar Parr - Don't Yell (At Me)
DYEAR=1995
DGENRE=Blues
TTITLE0=Don't Yell (At Me)
TTITLE1=Better Get Real
TTITLE2=Right To Quit You
TTITLE3=Using Me
TTITLE4=Headache
TTITLE5=Waiting On Your Love
TTITLE6=Know Your Lover
TTITLE7=Guitar Blues
TTITLE8=Strictly Blues
TTITLE9=You Lied To Me
TTITLE10=Mistreated
TTITLE11=Nasty Blues Habit
EXTD=
EXTT0=
EXTT1=
EXTT2=
EXTT3=
EXTT4=
EXTT5=
EXTT6=
EXTT7=
EXTT8=
EXTT9=
EXTT10=
EXTT11=
PLAYORDER=
